<?xml version="1.0" standalone="no"?>
<!DOCTYPE svg PUBLIC "-//W3C//DTD SVG 20010904//EN"
 "http://www.w3.org/TR/2001/REC-SVG-20010904/DTD/svg10.dtd">
<svg version="1.0" xmlns="http://www.w3.org/2000/svg"
 width="1414.000000pt" height="2000.000000pt" viewBox="0 0 1414.000000 2000.000000"
 preserveAspectRatio="xMidYMid meet">
<metadata>
Created by potrace 1.16, written by Peter Selinger 2001-2019
</metadata>
<g transform="translate(0.000000,2000.000000) scale(0.100000,-0.100000)"
fill="#000000" stroke="none">
<path d="M6960 12126 c0 -19 5 -38 10 -41 13 -8 13 -133 -1 -192 -20 -85 -32
-128 -41 -137 -4 -6 -8 -18 -8 -28 0 -10 -4 -26 -9 -36 -5 -9 -17 -35 -26 -57
-9 -22 -21 -49 -27 -60 -6 -11 -16 -29 -22 -40 -6 -11 -17 -24 -23 -28 -7 -4
-13 -15 -13 -22 0 -8 -16 -37 -35 -64 -19 -26 -35 -56 -35 -66 0 -10 -5 -15
-13 -12 -13 5 -15 0 -19 -42 -1 -11 -8 -17 -15 -14 -22 8 -15 -15 10 -32 21
-15 21 -17 5 -29 -10 -7 -18 -18 -18 -25 0 -6 -4 -11 -10 -11 -13 0 -13 23 0
36 8 8 6 15 -5 24 -12 10 -15 10 -15 -4 0 -9 -7 -16 -15 -16 -9 0 -12 -6 -9
-15 4 -8 2 -15 -4 -15 -5 0 -16 -15 -23 -32 -7 -18 -27 -45 -43 -60 -25 -23
-27 -29 -16 -43 11 -13 10 -15 -4 -9 -19 7 -23 -25 -4 -44 8 -8 8 -15 0 -25
-9 -11 -6 -19 14 -36 19 -17 24 -28 20 -47 -6 -21 -3 -24 24 -24 22 0 30 -5
30 -17 0 -13 6 -9 19 12 11 17 42 51 69 77 32 31 46 50 39 57 -5 5 -7 17 -3
26 8 21 53 13 71 -12 15 -20 38 -7 30 17 -8 24 29 50 58 42 19 -5 20 -3 9 11
-8 9 -20 13 -28 10 -8 -3 -14 1 -14 11 0 10 9 16 25 16 18 0 23 -4 19 -15 -4
-8 -1 -15 5 -15 6 0 10 3 10 8 -5 32 2 51 19 46 16 -5 16 -5 0 9 -23 18 -23
51 -1 72 15 16 18 16 29 1 11 -15 12 -15 18 0 9 23 8 42 -2 27 -6 -9 -11 -7
-19 7 -10 15 -8 23 8 45 16 19 24 23 34 15 15 -12 31 3 20 19 -3 5 2 17 11 25
10 10 11 16 3 16 -9 0 -8 4 1 15 10 12 10 15 -1 15 -11 0 -11 2 1 9 8 6 18 8
22 5 4 -3 5 9 1 27 -4 21 -2 34 7 39 12 7 29 89 31 143 0 9 4 15 9 12 6 -4 7
6 4 23 -8 40 17 60 52 42 23 -13 25 -19 25 -94 -1 -201 -7 -284 -22 -302 -8
-10 -5 -16 10 -26 13 -8 21 -23 21 -39 0 -30 -7 -40 -25 -32 -10 3 -11 11 -4
30 5 13 7 29 3 34 -8 13 -25 11 -22 -3 1 -7 -4 -37 -11 -66 -10 -40 -10 -57
-2 -65 11 -11 15 3 14 41 -1 10 3 9 16 -2 20 -18 47 -21 56 -6 16 25 218 8
370 -31 22 -6 51 -12 65 -12 13 -1 37 -14 53 -29 18 -16 36 -24 45 -20 11 4
12 7 4 10 -7 2 -12 8 -12 13 0 6 5 7 10 4 6 -3 10 -1 10 4 0 6 -4 11 -10 11
-5 0 -10 5 -10 11 0 5 4 7 10 4 18 -11 -3 59 -40 132 -21 40 -39 70 -42 68 -2
-2 -5 8 -6 22 -1 14 -7 32 -13 39 -6 8 -8 21 -5 30 4 11 2 15 -8 11 -14 -6
-40 38 -31 52 2 5 -9 23 -25 41 -17 19 -30 40 -30 47 0 8 -9 23 -20 35 -11 12
-20 28 -20 35 0 7 -4 13 -10 13 -5 0 -10 8 -10 17 0 9 -3 14 -6 10 -7 -7 -54
38 -54 52 0 6 -18 29 -39 53 -22 23 -37 46 -35 50 3 4 1 8 -5 8 -6 0 -39 29
-74 65 -35 36 -69 65 -75 65 -7 0 -12 5 -12 10 0 6 -7 10 -15 10 -7 0 -18 6
-22 13 -17 29 -176 127 -204 127 -5 0 -9 -15 -9 -34z m598 -696 c24 -1 25 -2
9 -11 -20 -11 -48 4 -46 25 0 7 2 6 6 -1 2 -7 17 -13 31 -13z m51 -61 c-21
-13 -32 -11 -25 7 3 9 6 20 6 26 0 5 7 2 17 -7 14 -14 14 -18 2 -26z m-671
-31 c-2 -13 -7 -23 -13 -23 -5 0 -11 10 -13 23 -2 15 2 22 13 22 11 0 15 -7
13 -22z m791 -83 c7 -19 10 -39 7 -44 -4 -5 -2 -11 4 -13 14 -5 0 -48 -16 -48
-8 0 -14 10 -15 23 -1 12 -3 43 -5 70 -5 55 7 61 25 12z m-822 9 c8 -21 -13
-42 -28 -27 -13 13 -5 43 11 43 6 0 13 -7 17 -16z m-107 -49 c0 -8 -7 -15 -15
-15 -13 0 -14 3 -3 15 16 18 18 18 18 0z m-160 -55 c0 -5 -5 -10 -11 -10 -5 0
-7 5 -4 10 3 6 8 10 11 10 2 0 4 -4 4 -10z m11 -44 c5 3 9 0 9 -5 0 -6 -7 -11
-15 -11 -8 0 -15 8 -14 18 0 10 3 12 6 4 2 -6 9 -10 14 -6z m69 -56 c0 -13 -7
-20 -20 -20 -19 0 -27 20 -13 33 13 14 33 6 33 -13z"/>
<path d="M7181 11121 c-7 -5 -11 -15 -9 -22 3 -10 8 -7 17 9 13 24 12 26 -8
13z"/>
<path d="M7100 11090 c0 -5 5 -10 11 -10 5 0 7 5 4 10 -3 6 -8 10 -11 10 -2 0
-4 -4 -4 -10z"/>
<path d="M7766 11075 c-6 -17 2 -45 13 -45 4 0 6 14 3 30 -5 34 -7 36 -16 15z"/>
<path d="M7701 11054 c0 -11 3 -14 6 -6 3 7 2 16 -1 19 -3 4 -6 -2 -5 -13z"/>
<path d="M6478 10993 c-8 -10 -21 -33 -29 -50 -8 -18 -19 -33 -26 -33 -7 0
-10 -7 -7 -15 4 -8 2 -15 -4 -15 -14 0 -22 -38 -8 -44 6 -3 1 -3 -11 0 -20 5
-23 1 -23 -25 0 -21 5 -31 15 -31 17 0 30 -58 20 -91 -7 -21 -8 -21 -18 -4 -7
13 -6 24 2 36 13 22 14 32 2 25 -5 -3 -11 0 -14 8 -3 8 -14 13 -24 12 -13 -2
-18 -11 -17 -37 0 -21 -6 -39 -17 -46 -18 -14 -31 -71 -17 -79 4 -3 7 -15 7
-27 -1 -17 -2 -18 -6 -4 -2 9 -9 17 -15 17 -6 0 -8 -11 -4 -26 6 -20 4 -25 -7
-21 -11 4 -14 -5 -12 -46 2 -31 -2 -55 -9 -59 -17 -11 -25 -238 -8 -238 11 0
18 -39 13 -84 -1 -16 1 -17 14 -6 12 10 15 10 15 -3 0 -8 -5 -17 -11 -19 -13
-4 7 -75 26 -93 5 -5 12 -19 13 -30 2 -11 7 -22 11 -25 6 -4 33 -80 37 -102 1
-5 2 -11 3 -15 1 -5 6 -1 11 7 8 13 10 13 10 -1 0 -21 27 -76 56 -116 13 -17
24 -37 24 -43 0 -7 11 -21 24 -31 13 -10 27 -30 30 -44 6 -21 11 -25 29 -19
19 6 20 5 8 -10 -11 -14 -11 -16 2 -16 8 0 15 -6 14 -12 -1 -34 4 -48 18 -48
8 0 15 7 15 15 0 8 -4 15 -10 15 -5 0 -10 15 -10 34 0 19 -4 38 -10 41 -5 3
-10 17 -10 30 0 13 -4 26 -9 30 -6 3 -13 25 -16 50 -5 27 -11 42 -19 39 -8 -3
-11 22 -13 83 -1 53 -6 89 -12 91 -6 2 -11 13 -11 25 0 20 1 20 13 3 12 -16
13 -15 13 17 0 19 -4 33 -8 31 -4 -3 -6 9 -4 25 2 17 1 31 -3 31 -3 0 -5 47
-4 105 1 57 -2 107 -8 110 -5 4 -9 14 -9 23 0 15 2 15 10 2 8 -12 10 -11 10 8
0 12 5 22 10 22 16 0 11 37 -6 44 -9 4 -13 13 -10 24 3 9 2 32 -3 50 -6 19 -6
34 0 37 5 4 9 21 9 40 0 19 5 37 10 40 6 3 10 21 10 40 0 19 5 37 10 40 6 3
10 20 10 37 0 18 10 42 25 60 14 16 25 35 25 43 0 7 7 18 15 25 8 7 15 19 15
27 0 11 -7 9 -30 -7 l-30 -21 0 40 c0 27 -7 48 -23 67 -21 24 -26 25 -44 13
-12 -7 -19 -18 -16 -26 7 -18 -27 -29 -37 -12 -10 15 -3 32 11 24 5 -4 9 0 9
8 0 8 9 17 21 20 12 3 18 10 15 15 -3 6 -2 12 3 14 4 1 12 13 15 26 9 27 -14
30 -36 5z m-138 -343 c0 -18 12 -24 48 -23 6 1 12 -10 12 -23 0 -22 -3 -24
-27 -18 -38 10 -51 26 -50 57 2 31 17 37 17 7z m-23 -142 c-3 -8 -6 -5 -6 6
-1 11 2 17 5 13 3 -3 4 -12 1 -19z m-27 -18 c0 -5 -5 -10 -11 -10 -5 0 -7 5
-4 10 3 6 8 10 11 10 2 0 4 -4 4 -10z m50 -126 c0 -21 -4 -33 -10 -29 -17 10
-11 65 7 65 2 0 3 -16 3 -36z m101 -121 c18 -5 19 -11 13 -74 -5 -49 -3 -73 6
-84 7 -8 15 -13 19 -11 3 2 7 -14 8 -35 0 -21 -2 -39 -5 -39 -13 0 -42 34 -42
50 0 10 -9 20 -21 23 -18 5 -19 8 -8 29 15 28 15 126 0 141 -13 13 -15 60 -3
71 4 4 8 -9 10 -29 2 -27 9 -39 23 -42z m-51 -48 c0 -35 -3 -43 -15 -39 -15 6
-21 64 -8 77 16 16 23 4 23 -38z m97 -67 c-3 -8 -6 -5 -6 6 -1 11 2 17 5 13 3
-3 4 -12 1 -19z m-154 -55 c-5 -12 -3 -14 7 -8 10 6 12 2 7 -16 -4 -13 -7 -30
-7 -38 0 -10 -3 -11 -14 -2 -8 7 -13 23 -11 36 1 14 -2 22 -6 19 -10 -6 -12
10 -2 19 13 14 32 7 26 -10z m71 -49 c10 -25 7 -94 -4 -94 -5 0 -10 1 -10 3 0
1 -3 26 -6 55 -6 50 6 72 20 36z m6 -114 c0 -5 -5 -10 -11 -10 -5 0 -7 5 -4
10 3 6 8 10 11 10 2 0 4 -4 4 -10z m77 -37 c-3 -10 -5 -4 -5 12 0 17 2 24 5
18 2 -7 2 -21 0 -30z m-28 -5 c0 -28 -2 -30 -9 -13 -12 28 -12 45 0 45 6 0 10
-15 9 -32z"/>
<path d="M6750 10966 c0 -8 5 -18 10 -21 6 -3 10 3 10 14 0 12 -4 21 -10 21
-5 0 -10 -6 -10 -14z"/>
<path d="M6805 10931 c-3 -5 -2 -12 3 -15 5 -3 9 1 9 9 0 17 -3 19 -12 6z"/>
<path d="M7006 10875 c-3 -8 -1 -15 3 -15 5 0 11 7 15 15 3 8 1 15 -3 15 -5 0
-11 -7 -15 -15z"/>
<path d="M6760 10851 c-7 -15 -7 -21 0 -21 12 0 25 28 17 36 -3 3 -10 -4 -17
-15z"/>
<path d="M6630 10704 c0 -14 3 -14 15 -4 8 7 15 14 15 16 0 2 -7 4 -15 4 -8 0
-15 -7 -15 -16z"/>
<path d="M6560 10681 c0 -17 5 -33 10 -36 6 -4 10 8 10 29 0 20 -4 36 -10 36
-5 0 -10 -13 -10 -29z"/>
<path d="M6610 10670 c0 -5 5 -10 10 -10 6 0 10 5 10 10 0 6 -4 10 -10 10 -5
0 -10 -4 -10 -10z"/>
<path d="M6585 10570 c-4 -6 -3 -16 3 -22 6 -6 12 -6 17 2 4 6 3 16 -3 22 -6
6 -12 6 -17 -2z"/>
<path d="M6566 10473 c-6 -14 -5 -15 5 -6 7 7 10 15 7 18 -3 3 -9 -2 -12 -12z"/>
<path d="M6520 10390 c0 -5 5 -10 10 -10 6 0 10 5 10 10 0 6 -4 10 -10 10 -5
0 -10 -4 -10 -10z"/>
<path d="M8356 9996 c-25 -25 -46 -42 -46 -38 0 3 -7 -3 -15 -14 -8 -10 -15
-14 -15 -9 -1 6 -8 -3 -16 -20 -8 -16 -12 -22 -10 -13 5 15 2 16 -14 6 -11 -7
-15 -15 -9 -18 13 -9 0 -40 -16 -40 -8 0 -17 5 -20 10 -3 6 -1 10 4 10 6 0 11
5 11 10 0 12 -59 10 -66 -2 -3 -4 0 -8 7 -8 7 0 10 -3 7 -6 -4 -3 -16 -1 -27
6 -14 7 -21 7 -21 0 0 -5 -3 -9 -7 -9 -22 4 -33 -3 -34 -18 0 -17 -1 -17 -7
-1 -5 13 -11 15 -22 8 -12 -8 -13 -11 -1 -19 8 -5 9 -11 3 -15 -14 -9 -43 4
-36 16 4 6 -3 5 -15 -1 -24 -13 -28 -41 -6 -41 8 0 15 -4 15 -10 0 -11 -53
-14 -63 -3 -4 3 -2 12 4 19 8 10 0 12 -42 8 -29 -3 -56 -7 -61 -10 -13 -8 -9
-21 7 -21 8 0 15 5 15 10 0 5 7 4 15 -3 21 -18 19 -27 -10 -34 -32 -8 -32 -24
0 -36 16 -6 23 -15 19 -24 -4 -11 0 -13 15 -9 12 3 24 9 27 14 3 5 16 9 29 9
13 0 26 4 30 9 3 6 13 10 23 10 42 1 58 5 69 17 10 10 10 14 0 18 -6 4 -2 4
11 2 12 -2 22 0 22 5 0 5 9 9 20 9 11 0 23 7 26 15 4 8 10 13 14 10 15 -9 58
13 64 33 7 20 49 34 73 25 25 -10 13 -40 -33 -86 -25 -26 -50 -47 -54 -47 -5
0 -10 -4 -12 -8 -4 -12 -116 -72 -132 -72 -8 0 -19 -7 -26 -15 -7 -8 -16 -12
-21 -9 -5 3 -9 0 -9 -5 0 -6 -12 -11 -26 -11 -14 0 -46 -12 -72 -27 -26 -15
-55 -26 -64 -25 -10 2 -18 -2 -18 -8 0 -7 -8 -9 -21 -5 -15 5 -19 4 -15 -4 6
-10 -13 -16 -36 -12 -5 0 -8 -4 -8 -9 0 -5 -3 -9 -7 -8 -13 2 -77 -29 -98 -49
-11 -10 -35 -26 -53 -36 -40 -23 -102 -83 -102 -100 0 -8 -3 -8 -9 2 -7 11
-10 11 -17 -1 -9 -16 -50 -66 -97 -120 -16 -19 -25 -39 -22 -47 3 -9 3 -12 -1
-9 -8 8 -44 -34 -44 -51 0 -6 -4 -11 -10 -11 -5 0 -10 -9 -10 -20 0 -11 -5
-20 -12 -20 -6 0 -8 -3 -5 -6 3 -4 -5 -26 -19 -49 -25 -44 -20 -68 8 -37 21
24 62 57 66 53 6 -6 62 22 62 31 0 5 4 7 9 4 5 -3 31 -1 57 5 27 5 59 10 72
10 12 -1 22 4 22 9 0 6 19 10 43 9 23 -1 60 1 82 4 22 3 70 9 108 12 37 4 67
11 67 17 0 5 6 8 13 5 25 -9 237 75 237 95 0 4 6 8 14 8 8 0 21 9 29 20 8 11
17 17 20 13 4 -3 7 1 7 10 0 9 6 17 13 17 8 0 30 19 50 43 54 62 54 61 49 77
-3 8 -1 12 3 8 9 -8 35 36 35 59 0 8 5 11 10 8 6 -4 10 5 10 20 0 18 4 24 13
19 10 -6 10 -4 0 7 -18 18 -16 30 2 23 11 -5 13 -2 8 12 -4 11 -3 15 4 11 6
-4 14 1 18 10 3 10 1 19 -4 21 -7 2 -5 10 4 19 8 8 15 25 15 39 0 13 5 24 11
24 8 0 10 14 6 40 -3 27 -1 45 9 54 11 11 11 16 1 19 -9 4 -9 8 2 15 11 8 11
10 0 15 -10 4 -10 6 -1 6 7 1 12 15 11 39 0 30 -2 33 -9 17 -11 -26 -13 -10
-10 88 1 45 -2 77 -8 77 -5 0 -30 -20 -56 -44z m-183 -163 c-7 -3 -13 -11 -13
-19 0 -8 -8 -15 -17 -15 -57 -4 -67 -3 -71 9 -3 10 6 13 34 11 22 -2 38 1 37
7 -1 5 8 10 20 11 12 0 16 -1 10 -4z m-136 -79 c-3 -3 -12 -4 -19 -1 -8 3 -5
6 6 6 11 1 17 -2 13 -5z m-82 -14 c3 -5 3 -10 -2 -11 -15 -1 -38 -7 -55 -14
-21 -8 -24 5 -6 23 15 15 54 16 63 2z"/>
<path d="M6742 9935 c-1 -36 3 -66 10 -73 9 -9 9 -15 1 -23 -8 -8 -8 -21 0
-45 9 -30 14 -34 34 -29 30 7 39 -14 26 -58 -10 -32 -12 -31 -27 17 -6 19 -7
19 -20 0 -9 -11 -11 -23 -6 -29 5 -6 10 -28 12 -48 1 -20 6 -37 11 -37 5 0 7
-6 4 -14 -3 -8 -2 -16 3 -18 5 -2 6 -19 1 -40 -6 -27 -5 -40 4 -48 8 -6 16
-30 20 -53 10 -64 28 -120 42 -135 7 -8 10 -18 7 -24 -4 -6 -2 -13 4 -17 7 -4
13 -17 15 -29 2 -12 7 -25 11 -29 14 -14 36 -75 30 -84 -3 -5 0 -9 5 -9 6 0
11 -11 11 -25 0 -14 5 -25 10 -25 6 0 10 -9 10 -20 0 -11 4 -20 9 -20 5 0 12
-13 16 -30 4 -16 11 -32 16 -35 5 -4 19 -27 30 -53 16 -34 19 -50 11 -63 -8
-13 -2 -24 32 -58 42 -42 68 -47 80 -16 3 8 0 12 -8 9 -11 -4 -51 30 -51 45 0
3 -2 5 -5 4 -3 -1 -7 10 -8 25 -1 14 -5 28 -10 31 -4 3 -8 13 -10 21 -2 8 -8
17 -13 18 -5 2 -9 20 -10 40 0 31 -2 34 -10 17 -7 -17 -8 -16 -7 10 2 57 -2
81 -11 67 -7 -12 -14 56 -12 123 1 11 2 43 3 72 0 29 5 50 10 47 4 -3 8 9 8
25 0 17 5 31 10 31 6 0 10 14 10 30 0 19 5 29 13 28 6 -2 11 5 11 15 -1 9 3
17 8 17 5 0 7 9 3 20 -7 23 19 68 30 51 3 -6 11 -11 17 -11 7 0 6 5 -2 15 -6
8 -8 19 -4 26 4 6 7 21 8 33 1 24 27 29 33 6 4 -13 3 -13 -6 0 -5 8 -14 11
-18 6 -4 -5 -2 -11 5 -13 6 -3 9 -10 5 -16 -4 -7 1 -6 10 2 9 7 17 20 17 27 0
8 7 14 15 14 16 0 31 43 20 59 -3 6 1 11 9 11 10 0 13 -6 9 -17 -4 -11 -3 -14
5 -9 15 9 16 36 2 36 -5 0 -10 5 -10 11 0 21 -29 39 -64 39 -25 0 -36 4 -36
15 0 9 -9 15 -23 15 -13 0 -27 3 -31 7 -13 14 -82 35 -109 34 -21 -1 -30 4
-34 19 -4 13 -14 20 -31 20 -16 0 -38 14 -61 37 -29 29 -37 34 -39 20 -5 -24
-22 -21 -22 3 0 11 -4 20 -9 20 -6 0 -12 17 -14 38 -2 26 -4 19 -5 -23z m148
-231 c0 -40 -4 -55 -12 -52 -14 5 -23 80 -14 105 12 30 26 0 26 -53z m-75 -84
c3 -5 -1 -10 -9 -10 -9 0 -16 5 -16 10 0 6 4 10 9 10 6 0 13 -4 16 -10z m245
-30 c0 -11 -4 -20 -9 -20 -11 0 -22 26 -14 34 12 12 23 5 23 -14z m-220 -40
c0 -5 -4 -10 -10 -10 -5 0 -10 5 -10 10 0 6 5 10 10 10 6 0 10 -4 10 -10z
m220 -51 c0 -6 -4 -7 -10 -4 -5 3 -10 11 -10 16 0 6 5 7 10 4 6 -3 10 -11 10
-16z"/>
<path d="M7810 9772 c0 -7 -7 -9 -17 -5 -10 4 -14 2 -10 -4 5 -7 0 -9 -11 -6
-22 5 -94 -35 -86 -48 3 -5 -4 -9 -15 -9 -11 0 -21 6 -23 13 -4 18 -68 2 -68
-17 0 -19 20 -25 46 -15 18 6 20 4 16 -17 -3 -19 0 -24 17 -24 11 0 21 5 21
12 0 6 3 9 6 5 3 -3 24 4 46 15 32 17 42 18 48 8 4 -7 15 -10 24 -7 9 4 27 2
41 -3 16 -6 25 -6 25 0 0 6 -7 10 -15 10 -9 0 -15 9 -15 21 0 18 -4 20 -29 14
-16 -3 -32 -2 -35 4 -4 6 9 13 29 17 38 7 43 15 20 34 -10 8 -15 9 -15 2z
m-100 -92 c-19 -13 -30 -13 -30 0 0 6 10 10 23 10 18 0 19 -2 7 -10z"/>
<path d="M5349 9749 c0 -2 -2 -31 -3 -64 -2 -42 2 -65 12 -77 9 -10 12 -27 8
-41 -4 -17 1 -32 15 -48 12 -13 16 -25 10 -27 -14 -5 -14 -23 0 -19 6 1 13
-11 15 -27 1 -16 7 -32 12 -35 5 -3 15 -23 23 -43 7 -21 17 -38 21 -38 4 0 7
-3 6 -7 -3 -15 14 -43 23 -37 5 3 9 -2 9 -12 0 -18 70 -101 82 -97 4 2 14 -10
22 -25 8 -15 26 -34 40 -41 14 -8 23 -18 20 -23 -3 -4 2 -8 10 -8 8 0 19 -6
23 -12 4 -7 17 -18 28 -24 16 -9 22 -8 31 4 9 13 18 13 54 4 51 -13 73 -7 65
19 -5 13 -1 19 10 19 9 0 13 5 10 10 -4 7 -11 7 -18 2 -20 -15 -82 -9 -82 8 0
10 9 15 27 15 24 -1 26 2 20 35 -3 19 -9 38 -14 41 -5 3 -9 26 -8 50 1 24 1
50 1 57 -1 14 -39 16 -61 2 -13 -8 -13 -9 0 -14 8 -2 22 -7 30 -9 8 -3 2 -6
-13 -6 -19 -1 -30 -8 -36 -23 l-8 -23 -7 22 c-4 13 -1 34 9 53 15 28 19 30 73
30 61 0 96 12 68 23 -9 4 -16 2 -16 -3 0 -6 -4 -10 -10 -10 -5 0 -7 7 -3 16 5
14 1 16 -20 12 -16 -3 -27 -1 -27 6 0 6 -5 4 -10 -4 -8 -12 -12 -12 -18 -2 -5
7 -16 10 -25 6 -12 -4 -17 -1 -17 10 0 9 -8 16 -20 16 -11 0 -20 5 -20 10 0 6
-9 10 -20 10 -11 0 -20 5 -20 11 0 5 -4 8 -9 5 -5 -3 -14 1 -21 9 -6 7 -17 12
-24 9 -6 -2 -21 5 -33 16 -12 11 -25 20 -29 20 -12 0 -44 42 -44 58 0 11 8 13
38 8 42 -8 121 -35 138 -48 6 -4 22 -8 35 -8 40 1 89 -12 83 -21 -3 -5 11 0
30 12 20 12 36 16 36 11 0 -6 -5 -12 -12 -14 -9 -3 -9 -6 0 -12 8 -4 16 1 21
16 8 18 10 19 10 5 1 -15 3 -16 15 -5 8 7 10 15 5 16 -5 2 -9 9 -9 16 0 13 61
26 121 26 16 0 29 4 29 8 0 20 -23 28 -67 22 -30 -3 -61 -1 -81 7 -18 7 -65
16 -105 18 -124 8 -137 10 -137 15 0 3 -16 5 -35 4 -19 -1 -35 3 -35 9 0 6 -3
8 -6 4 -4 -3 -22 0 -40 8 -19 8 -34 11 -34 7 0 -4 -4 -2 -8 4 -4 6 -25 21 -47
33 -22 11 -50 28 -62 37 -13 9 -23 15 -24 13z m501 -189 c0 -5 -7 -10 -15 -10
-8 0 -15 5 -15 10 0 6 7 10 15 10 8 0 15 -4 15 -10z m-58 -31 c-11 -10 -19
-12 -24 -6 -10 16 -1 26 22 24 18 -1 18 -2 2 -18z m-31 -418 c-8 -5 -11 -16
-8 -25 8 -19 -13 -22 -31 -4 -21 21 -13 33 21 35 21 2 27 0 18 -6z"/>
<path d="M7255 9710 c-3 -5 3 -10 14 -10 12 0 21 5 21 10 0 6 -6 10 -14 10 -8
0 -18 -4 -21 -10z"/>
<path d="M7555 9690 c-3 -5 -1 -10 4 -10 6 0 11 5 11 10 0 6 -2 10 -4 10 -3 0
-8 -4 -11 -10z"/>
<path d="M7739 9650 c-21 -16 -21 -19 -6 -20 10 0 20 7 24 16 4 11 8 12 13 4
4 -7 13 -9 20 -5 9 6 9 9 -1 16 -20 12 -24 11 -50 -11z"/>
<path d="M7520 9634 c0 -10 -5 -14 -15 -10 -33 13 -49 16 -27 5 22 -12 30 -29
13 -29 -5 0 -17 -3 -25 -6 -12 -5 -15 -2 -10 12 5 18 5 18 -9 2 -8 -10 -17
-15 -21 -11 -4 4 -4 0 0 -10 4 -11 0 -19 -10 -23 -9 -3 -16 -13 -16 -21 0 -8
-4 -11 -10 -8 -5 3 -10 0 -10 -8 0 -7 -12 -24 -26 -36 -17 -15 -23 -26 -16
-30 7 -4 8 -12 2 -21 -9 -13 -10 -13 -10 0 0 10 -4 9 -13 -5 -15 -24 -40 -95
-35 -100 8 -8 48 8 42 16 -3 5 -1 9 4 9 5 0 14 12 20 26 7 14 16 23 20 20 4
-2 18 9 31 25 13 16 29 29 35 29 6 0 18 9 26 20 8 11 20 20 27 20 7 0 13 4 13
8 0 11 63 47 75 44 5 -2 1 6 -10 18 -10 11 -24 19 -31 16 -8 -3 -11 0 -8 9 5
12 83 27 94 18 10 -9 -26 -22 -45 -16 -17 5 -18 4 -6 -10 12 -15 17 -15 48 -2
19 8 39 12 44 9 15 -9 10 1 -11 26 -13 15 -26 21 -40 17 -11 -3 -20 -1 -20 4
0 5 -16 9 -35 9 -25 0 -35 -4 -35 -16z m-10 -80 c0 -12 -9 -14 -37 -12 -25 2
-43 -2 -51 -12 -12 -13 -13 -13 -6 0 15 32 28 40 60 40 24 0 34 -5 34 -16z
m-115 -84 c-3 -5 -13 -10 -21 -10 -8 0 -12 5 -9 10 3 6 13 10 21 10 8 0 12 -4
9 -10z"/>
<path d="M5918 9515 c-31 -27 -34 -35 -14 -35 8 0 18 9 21 20 3 11 11 20 16
20 6 0 7 -4 4 -10 -9 -14 8 -12 24 3 12 10 13 8 7 -8 -6 -20 -6 -20 9 -1 8 11
15 23 15 28 0 17 -57 6 -82 -17z"/>
<path d="M6490 9351 c0 -6 4 -13 10 -16 6 -3 7 1 4 9 -7 18 -14 21 -14 7z"/>
<path d="M6580 9340 c-7 -25 -7 -39 1 -34 5 3 9 0 9 -7 0 -7 2 -10 5 -7 3 3 1
16 -4 29 -5 13 -10 22 -11 19z"/>
<path d="M7262 9300 c0 -14 2 -19 5 -12 2 6 2 18 0 25 -3 6 -5 1 -5 -13z"/>
<path d="M6605 9260 c-3 -5 -2 -10 4 -10 5 0 13 5 16 10 3 6 2 10 -4 10 -5 0
-13 -4 -16 -10z"/>
<path d="M6515 9131 c-3 -5 -1 -12 5 -16 5 -3 10 1 10 9 0 18 -6 21 -15 7z"/>
<path d="M6590 9080 c0 -5 -7 -10 -15 -10 -8 0 -15 -4 -15 -10 0 -5 7 -10 15
-10 8 0 15 -4 15 -9 0 -4 11 -20 24 -34 24 -25 24 -27 6 -37 -15 -8 -19 -5
-24 15 -4 14 -13 25 -21 25 -8 0 -18 7 -23 16 -10 19 -32 11 -32 -12 0 -8 -5
-14 -11 -14 -6 0 -22 -8 -35 -19 l-24 -19 30 -4 c21 -3 35 1 47 14 9 10 19 15
22 11 14 -19 64 -35 150 -48 18 -3 42 -10 52 -16 11 -5 25 -7 31 -3 12 8 -68
84 -88 84 -7 0 -15 12 -18 26 -6 21 -10 24 -21 14 -17 -14 -39 -4 -31 15 5 13
-12 35 -26 35 -4 0 -8 -4 -8 -10z"/>
<path d="M5760 9028 c0 -4 9 -10 20 -13 11 -3 20 -11 20 -16 0 -6 5 -7 10 -4
6 3 10 1 10 -4 0 -6 9 -11 20 -11 26 0 26 15 0 33 -11 8 -17 16 -15 19 3 3
-10 5 -30 4 -19 0 -35 -4 -35 -8z"/>
<path d="M5890 9005 c0 -28 4 -35 19 -35 11 0 21 5 23 12 3 8 11 5 24 -8 10
-10 25 -18 32 -18 6 1 17 2 23 3 19 2 -16 28 -49 36 -18 3 -32 13 -32 20 0 11
-20 25 -36 25 -2 0 -4 -16 -4 -35z"/>
<path d="M6018 8943 c6 -2 18 -2 25 0 6 3 1 5 -13 5 -14 0 -19 -2 -12 -5z"/>
<path d="M6857 8894 c6 -15 23 -19 23 -5 0 5 -7 11 -14 14 -10 4 -13 1 -9 -9z"/>
</g>
</svg>
