<svg width="25" height="24" viewBox="0 0 25 24" fill="none" xmlns="http://www.w3.org/2000/svg">
<g clip-path="url(#clip0_4525_1701)">
<path d="M20.6665 0H4.6665C2.45736 0 0.666504 1.79086 0.666504 4V20C0.666504 22.2091 2.45736 24 4.6665 24H20.6665C22.8756 24 24.6665 22.2091 24.6665 20V4C24.6665 1.79086 22.8756 0 20.6665 0Z" fill="url(#paint0_radial_4525_1701)"/>
<path d="M11.7911 7.18747C11.1358 7.18747 10.5295 7.3931 10.0307 7.7431C9.99835 7.24172 9.88374 6.80684 9.67287 6.42184C10.3389 6.05324 11.0896 5.86482 11.8507 5.87519C12.6119 5.88556 13.3571 6.09436 14.0129 6.48098C14.6686 6.86759 15.2121 7.41862 15.5897 8.07962C15.9673 8.74062 16.1659 9.48872 16.1658 10.25H18.1353C18.5413 10.25 18.9306 10.4112 19.2177 10.6982C19.5048 10.9851 19.6663 11.3744 19.6665 11.7804V16.5929C19.6666 16.7941 19.6271 16.9934 19.5501 17.1793C19.4732 17.3653 19.3603 17.5342 19.218 17.6765C19.0758 17.8188 18.9068 17.9317 18.7209 18.0086C18.535 18.0856 18.3357 18.1251 18.1345 18.125H13.3223C12.9162 18.125 12.5267 17.9637 12.2396 17.6765C11.9524 17.3893 11.7911 16.9999 11.7911 16.5937V14.625C11.1825 14.6258 10.5804 14.4991 10.0237 14.2531C10.0351 13.9556 10.0412 13.6432 10.0412 13.3125V13.2582C10.0412 13.1121 10.0412 12.9441 10.0386 12.7621C10.5524 13.1211 11.1643 13.3133 11.7911 13.3125V11.7812C11.7911 10.936 12.4771 10.25 13.3223 10.25H14.8534C14.8534 9.43775 14.5308 8.65879 13.9565 8.08446C13.3822 7.51013 12.6033 7.18747 11.7911 7.18747ZM15.9655 11.5625C15.7534 12.2344 15.3826 12.8453 14.8844 13.3435C14.3863 13.8417 13.7754 14.2125 13.1035 14.4246V16.5937C13.1035 16.7145 13.2015 16.8125 13.3223 16.8125H18.1345C18.1925 16.8125 18.2481 16.7894 18.2891 16.7484C18.3302 16.7074 18.3532 16.6518 18.3532 16.5937V11.7812C18.3532 11.7232 18.3302 11.6676 18.2891 11.6266C18.2481 11.5855 18.1925 11.5625 18.1345 11.5625H15.9655ZM14.5586 11.5625H13.3223C13.2643 11.5625 13.2086 11.5855 13.1676 11.6266C13.1266 11.6676 13.1035 11.7232 13.1035 11.7812V13.0176C13.7412 12.714 14.255 12.2002 14.5586 11.5625ZM7.92473 5.10934C7.99736 5.17287 8.04694 5.25862 8.06577 5.35326C8.08461 5.44789 8.07162 5.5461 8.02885 5.63259C8.02145 5.65819 8.01762 5.68469 8.01748 5.71134C8.01748 5.76647 8.03148 5.87147 8.16359 6.00272C8.22747 6.06659 8.27646 6.11209 8.32983 6.16197C8.37358 6.20222 8.41995 6.24422 8.47857 6.30197C8.59232 6.41047 8.71218 6.53822 8.8198 6.69834C9.04291 7.03347 9.16628 7.4526 9.16628 8.06247C9.16628 8.80885 8.8898 9.44498 8.45845 9.83523L8.51445 9.89998C8.75943 10.201 8.90205 10.5912 8.99129 10.9762C9.16628 11.7375 9.16628 12.6527 9.16628 13.2906V13.3125C9.16628 15.7511 8.83468 17.1345 8.46982 17.9255C8.28609 18.3236 8.09097 18.5774 7.92211 18.7366C7.85346 18.8025 7.77775 18.8606 7.69637 18.9099C7.65911 18.9323 7.62021 18.9519 7.58001 18.9685C7.58001 18.9685 7.48114 19 7.41639 19C7.35164 19 7.25278 18.9685 7.25278 18.9685C7.21213 18.9529 7.17315 18.9332 7.13641 18.9099C7.05503 18.8606 6.97933 18.8025 6.91067 18.7366C6.74181 18.5765 6.5467 18.3236 6.36296 17.9255C5.9981 17.1345 5.6665 15.7511 5.6665 13.3125V13.2906C5.6665 12.6519 5.6665 11.7375 5.84149 10.9762C5.93073 10.5912 6.07335 10.201 6.31833 9.89998C6.33583 9.8781 6.35508 9.85623 6.37433 9.83523C5.94298 9.44498 5.6665 8.80885 5.6665 8.06247C5.6665 7.77722 5.74262 7.43685 5.84761 7.12272C5.95261 6.80772 6.0996 6.48222 6.26934 6.21972C6.47145 5.87847 6.75581 5.59234 6.97629 5.39984C7.09717 5.29352 7.22333 5.19336 7.35427 5.09972L7.39277 5.07347C7.473 5.01998 7.56865 4.9945 7.66485 5.00099C7.76105 5.00748 7.85241 5.04557 7.92473 5.10934Z" fill="white"/>
</g>
<defs>
<radialGradient id="paint0_radial_4525_1701" cx="0" cy="0" r="1" gradientUnits="userSpaceOnUse" gradientTransform="translate(0.666504) rotate(45) scale(33.9411)">
<stop stop-color="#D85B16"/>
<stop offset="1" stop-color="#F33C89"/>
</radialGradient>
<clipPath id="clip0_4525_1701">
<rect width="24" height="24" fill="white" transform="translate(0.666504)"/>
</clipPath>
</defs>
</svg>
