<svg id="Capa_1" data-name="Capa 1" xmlns="http://www.w3.org/2000/svg" viewBox="0 0 1414 2000"><defs><style>.cls-1{fill:#fefefe;}.cls-2{fill:#95b537;}.cls-3{fill:#9dba35;}.cls-4{fill:#8fb236;}.cls-5{fill:#97b63a;}.cls-6{fill:#9eba39;}.cls-7{fill:#9bb841;}.cls-8{fill:#a5be52;}.cls-9{fill:#b0c473;}.cls-10{fill:#afc474;}.cls-11{fill:#afc371;}.cls-12{fill:#b8c878;}.cls-13{fill:#b3c577;}.cls-14{fill:#a7c057;}</style></defs><path class="cls-1" d="M-409,1420.89v-2000H1005v2000ZM332.32,459l-.17.18-1.64,1.8-3.43,4.07-2,2.85,0,0L323.67,470l-.6,1-3.36,6c-.28.55-.56,1.1-.83,1.65q-2.36,5.58-4.69,11.16c-.1.62-.2,1.25-.29,1.88q-1.92,7.09-3.83,14.2l2.33,1,5.54-10.11,0,0,6-8,1-1.11L337,475.91a1.43,1.43,0,0,0,.81-.57c2.11-1.18,4.22-2.36,6.32-3.56l17-9.76,6.85-2.34,11.32-3.53,3.5-1.15,23.36-9,1.8-.94c1.66,3.71-1.4,4.88-3.64,5.87-8.05,3.58-16.27,6.8-24.38,10.27-3.13,1.34-6.13,3-9.19,4.53l-2.69,1-2.25,1-1.75.66-2.33,1.29-5.66,2.84L354,473.9h0l-5.91,4-1.11.93-6.91,6.07-1,1.17L336,488.89l-8.34,10.22L327,500q-5.89,9.51-11.8,19c-.06.33-.13.65-.19,1q-4,9.46-8.05,18.93c-1.29-.59-3.24-.82-3.77-1.81-9.3-17.34-12.8-35.21-4.36-54a7.77,7.77,0,0,0,.28-2.35l2.82-4.86,1.83-3,.09-.12,1.72-1.95,13.76-16.95,2.62-3,6.59-7,2.43-3q2.47-2.55,5-5.08l6.55-7,2.5-2.88,5.46-6.11,1.55-1.86,2.57-3.12,1.38-2,4.19-6c.62-1,1.23-1.94,1.84-2.91l1.29-2.08.46-1,1.21-2c6.05-8,9.36-17.05,10.9-26.85.09-.59.19-1.18.28-1.77.59-3.09,1.17-6.18,1.76-9.27.08-.92.15-1.84.23-2.75q.08-12.67.14-25.35c-.06-.63-.13-1.25-.19-1.88a18.72,18.72,0,0,0,.19-4.34c-3.47-18.69-9.35-36.56-18.9-53.07-2.86-4.95-6.32-9.54-9.5-14.29l-.21-.27-2.77-3.83-.13-.17q-3.35-4.59-6.71-9.17l-.62-.81-5.36-6.23a1,1,0,0,0-.56-.78l-16.59-16.45-3.06-2.57-2.95-2.4-.89-.66c-7.62-7.45-17.08-11.61-27.76-16.1a56,56,0,0,1,1.09,5.7c.6,8.23,2.13,16.56,1.43,24.69-1.46,17.1-10.37,31.45-19.4,45.46-12.63,19.58-26,38.66-38.31,58.44a103.75,103.75,0,0,0-15.59,44.37,92.48,92.48,0,0,0,8.15,49.14c6.75,14.51,14.77,28.22,25.37,40.31.22.31.45.61.67.91l2.33,3.09,1.56,1.92,8.64,11.67,1.43-1q-.66-2.36-1.31-4.71c-3.47-12.67-8-25.16-10.13-38.06-2.57-16-4.77-32.36-1.25-48.65,3.49-16.13,10.64-30.77,18.66-45.06,3.72-6.64,7.2-13.41,10.79-20.13l.6-1c.29-.16.71-.24.85-.48,11.32-18.84,22.61-37.69,26.67-59.78a35,35,0,0,1,1.59-4.76l1.81.32c-.35,6.05,0,12.27-1.21,18.13-2,9.34-5.1,18.45-7.73,27.66l-1.15,2.85-7.35,15.12-.43,1a32.61,32.61,0,0,0-3,4.33c-4.26,8.85-8.4,17.75-12.58,26.63l-.72,1.85-.86,1.94L271.78,364l-1.92,4.65c-1.57,3.76-3.56,7.39-4.63,11.28-3,10.78-5.78,21.63-4.24,33l.12,11a37.05,37.05,0,0,0-.43,5.33,229.61,229.61,0,0,0,20.12,80.22c3.59,8,7.24,16,10.87,23.94l-1.12,1-3.61-1-1-.51c-3.21-1.6-6.45-3.13-9.62-4.8-2.3-1.22-4.78-2.3-6.69-4-5-4.41-9.24-9.67-14.54-13.58-7-5.17-14.72-9.38-22.13-14l-3-1.62L220,490l-3-1.1-15.91-4.74-2.76-.41c-.37-.32-.7-.84-1.12-.93q-22.12-4.69-44.27-9.31l-2-2.57a9.82,9.82,0,0,1,2.75-.34c11.57,2,23.15,3.95,34.7,6,11.38,2.05,22.75,4.2,34.11,6.38,2.21.43,4.36,1.24,6.53,1.88l2.07,1,12.94,7.7,7.64,5.61L266.13,513c-2.33-8.46-4.54-15.51-10.22-21l0-.06L252,486.83a1.61,1.61,0,0,0-.55-.76l-12.66-12.71a1.5,1.5,0,0,0-.82-.48l-6.21-4.32-1.59-.84c-12.52-8.63-26.79-9.16-41.22-8.93l-4.15-.29-8.86-.75-2.65-.16L154,455.77l-1.71-.11-16.43-5.32-2.8-1.47-2.2-1.53L129,445.91l-4.53-3.63-.72,2.83c0,.64-.11,1.28-.16,1.92l.07,8.24c.07.87.15,1.73.23,2.6l.9,4.3c.18.92.35,1.85.53,2.77L129,476l2,4.75q1.51,3.1,3.05,6.2l5.06,8q3.48,4.5,6.95,9l5.81,6.11,2.18,1.9,1,1L159,516l5.81,4,9.41,4.84,2.84,1,4.92,1.67,1.92.44,3.11.71,1.9.28,2.06.53,5.8.61,16.56,0,8.69-.59,2.27-.44,5.8-.42,11.19-.58h3.54L269,531.9l.95-.21,1.1.11,0,0,4.94,2,1.86.53,4.18,1.15a.94.94,0,0,0,.76.49c4.24,2.51,8.53,4.94,12.71,7.56,2.58,1.62,5,3.51,7.48,5.28,2.11-.5,5.56-.43,6.07-1.62,1.92-4.48,2.88-9.37,4.21-14.11a1.08,1.08,0,0,0,.6-.53c6.37-6.44,13.27-12.06,22.59-13.49,8.52-1.31,17-2.72,25.63-3.56,14.1-1.36,27.73-4.5,39.59-12.33,5.87-3.86,10.47-9.64,15.64-14.55l1-1.63a.53.53,0,0,0,.59-.33q1.72-2.52,3.47-5l.55-.89,2.46-4.11.48-1c.69-.65,1.64-1.17,2-2a96.83,96.83,0,0,0,9.49-35.45c.31-4.44-.76-9-1.2-13.46-.11-.66-.22-1.32-.32-2-.83-3.72-1.13-7.69-2.68-11.1-1.07-2.36-2.59-.89-2.93,1.22l-1.25,2-8,8-2.84,1.74-2,1.34-.95.52-7.41,3.25-1.72.41-4.34,1.54L397,433.09l-19.23,5.6-1.77.37-5.26,1.61-1.72.38-2.09.75-3.75,1-2.44.86-1.73.4-5,1.77-2.8,1.08-8.05,4-8.93,6.52Z" transform="translate(409 579.11)"/><path class="cls-2" d="M333.51,238a1,1,0,0,1,.56.78l5.36,6.23.62.81q3.36,4.59,6.71,9.17l.13.17,2.77,3.83.21.27c.74,1.46,1.47,2.93,2.22,4.39L364,286.89l1,2c.65,1.34,1.31,2.67,2,4l1.05,4c0,.32,0,.64.05,1l1.81,2.07.17,2.95,1,2q0,.5,0,1l1,2,1,3c-2.34,2.12-4.43,4.64-7.07,6.27-3.93,2.43-5.93-.75-7.92-3.52a4,4,0,0,0-2.12-1.23c-5.64-1.54-11.24-3.57-17-4.35a124.87,124.87,0,0,0-21.26-1c-5.25.19-9.95.63-11.66-6.22-3,4.75,5,10.09-1.41,13.57L300,310.89l-1.79,0-.39-.11L299,308l6-11.08,4.45.6c-.55-3.61-1-6.61-1.47-9.61.35-11.06.78-22.12.95-33.18,0-1.47-1.28-2.95-2-4.43-.67,1.33-1.68,2.59-2,4-2.66,13.49-4.93,27.08-11,39.61-5.87.39-3.74,4.8-4,8l-2.94,4-1,3-1,1c-3.69.43-6.29,1.59-4,6l-2,5c-5.15,1.1-7.52,5.16-7,12h0c-3.92.19-2.64-2.76-3.05-4.83a42.73,42.73,0,0,0-1.76-5.3l-2.29.61c.31,3.56.63,7.11,1,10.67l-.5-.11c-.35,2.88-.7,5.76-1.13,9.25L259,338.31c-2.17,3.93-3.54,8-6.23,10.88-3.69,3.91-2.22,6.67.38,9.92a8.3,8.3,0,0,1,.89,2.8l-1,0-5.35-4.68c.17,2.13.25,3.15.33,4.17a31.09,31.09,0,0,1,.24,3.6c-.11,2.16-.34,4.32-.56,6.48-.29,2.82-.64,5.63-.94,8.45-.27,2.64-.51,5.3-.76,7.94,0,.33,0,.66,0,1l-1,3c-.34,1.67-.68,3.33-1,5q-1,2.52-2,5,.51,7,1,13.95c-1.34,3.18-4.78,6.6,1,9a41.1,41.1,0,0,1,.91,5.34c.62,15.5,5.68,30,10,44.66l-2,1-3.43-2.11L248,471.89l-2.33-3.09c-.22-.3-.45-.6-.67-.91l-7-12c.15-.84.29-1.67.44-2.51L237,454c-4-6-8.65-11.73-11.81-18.17-8.6-17.48-14.52-35.84-12-55.66,1-7.86,3.84-15.49,5.83-23.23.33-1,.65-2,1-3,.47-1.57.81-3.2,1.43-4.71,6.77-16.53,17.35-30.85,26.93-45.72,3.37-5.23,7.6-9.91,11-15.13,5.11-7.93,9.74-16.17,14.72-24.18,11-17.68,16.22-36.44,11.24-57.25-.32-1.32,0-2.78,0-5.18,5.34,3.08,9.91,5.73,14.5,8.36,3.42,2,6.87,3.88,10.31,5.82l.89.66,2.95,2.4,3.06,2.57Z" transform="translate(409 579.11)"/><path class="cls-3" d="M376.14,370.17c-.09.59-.19,1.18-.28,1.77-1,2-1.93,4-2.89,5.95-4.34,1.12-8.07,4.39-7.26,8.2.65,3-.55,4.77-.92,7.09-.41,2.53-.7,5.07-1,7.61l-.46,1L362,403.9l-1.83,2.91-4.2,6-1.38,2L352,417.94l-1.55,1.86c-5-.85-4.58,3.23-5.46,6.11l-2.5,2.88a2.75,2.75,0,0,1-.49-.14c-.57-2.83-1.14-5.66-1.57-7.76-7.85,0-15.37.72-22.68-.21-7-.88-13.77-3.36-20.56-5.42-1.23-.37-2.07-2.06-3.09-3.13s-2-2.16-3.05-3.19c-4.42-4.31-8.95-8.53-13.22-13-.7-.72-.22-2.48-.53-3.7-.53-2.11-1.27-4.18-1.92-6.27-1.78,1.47-3.59,2.9-5.32,4.42-1,.9-1.9,1.94-2.85,2.92a25.77,25.77,0,0,1-.28-4.45,4.57,4.57,0,0,1,1.37-2.52c2.48-2.43,1.27-3.62-1.33-4.46,0-.67.05-1.33.07-2l1.92-3c.29-2.75.59-5.51.88-8.26l1.92-4.65,1.13-2.23c.29-.65.58-1.29.86-1.94l3.23-1.9q2.49-5.5,5-11l3,1,.23.41.18-.18-.41-.23-2.93-3,3-6c5.12.34,6.25,3.64,6.24,7.94-.58.11-1,.08-1.14.25a5.19,5.19,0,0,0-.34,1.33,11.67,11.67,0,0,0,1.48-1.58,34.86,34.86,0,0,1,1.12-5.2,24.46,24.46,0,0,1,1.7-5.38c.22-.41,3-.22,3.5.48,2.25,3.08,4.83,1.58,7.62,1.41,5.47-.36,2-4.55,3.59-7.22,10.83,0,21.95-.09,33.06.14,1.05,0,2.93,1.95,2.95,3,.05,3.92,2.21,4.69,5.45,4.83,11.46.5,18.72,8.2,18.73,19.73,0,1.5-.3,3.12.17,4.46.38,1.12,1.68,1.92,3.46,3.8-.28-4.56-.64-7.48-.57-10.4.08-3.64,1.62-6.1,5.84-5.6l.23,7.25c-.08.91-.15,1.83-.23,2.75a5.43,5.43,0,0,0-.9,0l-1.89-.53.9,3.57C376.05,366,376.1,368.08,376.14,370.17Z" transform="translate(409 579.11)"/><path class="cls-4" d="M339.12,486.11l1-1.17,3.87-2.08c4.25,2.58,5.88,1.95,7.15-2.74l.87-3.3,1-.93c4.23.73,8.36-5.28,12.66-.2,0,.05.3-.1.56-.18l1.52-2.95c2.76-.12,6,.58,6.67-.44,2.83-4.13,5.9-7,11.29-6.8,1.08.05,2.16-1.45,3.34-2a10.58,10.58,0,0,1,4.09-1.36c7.13,0,10.21-5.45,13.84-10.15l7-4.92c1.91.73,4.18,1,5.65,2.28,3.11,2.64,4.09,1,4.7-.55L420,440.89a3.88,3.88,0,0,1,.18-1,28.26,28.26,0,0,0,2.4-1.89c-1.36-2.1-2.89-4.11-4.41-6.11-1.05-1.37-2.13-2.72-3.19-4.08.07-.45.15-.9.22-1.34l.95-.53,1.86,0c4.39,2.33,8.15,5.1,10.29,10,1.51,3.49,5.39,5.94,4.49,10.52,0,0,.88.25,1.35.38-.36,2-.73,4-1.09,6-1.28,1-3.4,1.73-3.7,2.95-1.07,4.32-1.52,8.8-2.2,13.22-.42,2.21-.83,4.43-1.25,6.65l-.48,1L423,480.82l-.55.89-3.63,4.13-1.13.65.7.57-1,1.63a13.54,13.54,0,0,0-2.9,1.85c-14.51,15.57-33.09,21.52-53.66,23.49-10.64,1-21.48,2.27-31.63,5.36-6.22,1.89-13.62,4.9-15.26,13.23a1.08,1.08,0,0,1-.6.53c.07-2.39,0-4.8.27-7.16a51.67,51.67,0,0,1,1.49-6l.19-1c3.58-6.56,10.59-11,11.81-19l.62-.84a41.78,41.78,0,0,0,4.29-3.39,58.61,58.61,0,0,0,4-4.87C338.46,490.25,340.7,489.46,339.12,486.11Z" transform="translate(409 579.11)"/><path class="cls-5" d="M188.86,529l-1.9-.28-3.11-.71-1.92-.44L177,525.89l-2.84-1-9.41-4.84L159,516,155,512.88l-1-1-2.18-1.9c-1.94-2-3.88-4.07-5.81-6.11q-3.48-4.49-6.95-9l-5.06-8q-1.53-3.09-3.05-6.2L129,476q-1.84-5.51-3.67-11c-.18-.92-.35-1.85-.53-2.77l-.9-4.3c-.08-.87-.16-1.73-.23-2.6,0-2.75,0-5.49-.07-8.24,0-.64.11-1.28.16-1.92l5.25.8,1.87,1.43,2.2,1.53,2.8,1.46,16.43,5.33,1.71.11,19.35,1.82,2.65.16,8.86.75,4.15.29a41.93,41.93,0,0,0,4.63,1.08c5.42.66,10.95.73,16.24,1.92,6.88,1.53,13.58,3.92,20.35,5.93l1.59.83,6.21,4.33a1.5,1.5,0,0,1,.82.48l12.66,12.71a1.61,1.61,0,0,1,.55.76l3.83,5.14,0,.06,6.25,14.2-10.47-7.08-7.64-5.61c-3-4.85-7.93-6.3-12.94-7.7l-2.07-1c-9.64-6.11-20.68-7.57-31.61-8.92-16.71-2.06-33.65-2.61-49.58-9a27.49,27.49,0,0,0-5.26-1c-.23.69-.45,1.37-.67,2.06l7.55,2.89H151l0,0,2,2.57c8.15,5.61,17.88,6.1,27.06,8.39l4.61,5.09c-.09,5.2-5,3.35-8,4.32,1.33,6.82,2.63,13.46,3.7,18.94,4.59,3.11,8.65,6.3,13.11,8.77s9.52,4.33,14.12,6.36L201,529.73l-4.27.4-5.8-.61Zm-12.69-42,.53-1.43-4-1.5c-.19.54-.37,1.08-.56,1.61Z" transform="translate(409 579.11)"/><path class="cls-2" d="M270,531.69l-.95.21c-.46-.61-.88-1.7-1.41-1.75-7.6-.77-15.21-1.41-22.82-2.07h-3.54l-7.21-.42c1.16-2.92,1.68-6.42,3.63-8.65,3.31-3.8,7.53-6.8,11.37-10.14,5,4,10.8,7.2,14.7,12,5.94,7.35,13.64,10.19,22.21,12l1,.51,6.05,3.83,1.24-1.19c-.59-1.77-1.05-3.6-1.79-5.3-5.88-13.48-12.36-26.73-17.54-40.48-3.81-10.13-5.95-20.9-8.83-31.39,2.1-2.71,2-5.09-1.06-7l0-7-1.92-5,.9-13.94c1.76-1.34,4-4.1,5.19-3.72,3.38,1,8.63-1.2,9.84,4.55.91,4.34,3.15,7,8,7.38,2.68.2,5.31,1.37,7.93,2.18s5.13,1.86,7.77,2.51c2.37.58,5.34,0,7.1,1.31,1.46,1.05,1.54,4,2,5.41l5-2.53a43.44,43.44,0,0,1,1.24,5.34,45.44,45.44,0,0,1-.05,5.47L304.88,470.6c-.33.7-.66,1.39-1,2.09l-.09.12-1.83,3q-1.41,2.43-2.81,4.86c-.41.28-1,.47-1.2.85-4.61,9.62-7.14,19.62-5.37,30.36.82,4.93,1.73,9.85,2.59,14.78,1.1,0,1.52,1.15,2,2.29,1.64,3.64,3.13,7.36,5.07,10.84.7,1.25,2.52,1.88,3.82,2.8.56.95,1.11,1.9,1.66,2.85L303,548c-1.34-1.19-2.64-2.42-4-3.55-4.79-3.92-9.59-7.85-16.15-8.36a.94.94,0,0,1-.76-.49l-4.18-1.15-1.86-.53-4.94-2,0,0Z" transform="translate(409 579.11)"/><path class="cls-6" d="M291,346.89c.29-4.36-.84-7.66-6-8l4.92-6,2.82-1.71L290,329.89,290,327l.43-1L298,312.89l2-2,4.55,3.51c6.44-3.48-1.57-8.82,1.41-13.57,1.71,6.85,6.41,6.41,11.66,6.22a124.87,124.87,0,0,1,21.26,1c5.75.78,11.35,2.81,17,4.35a4,4,0,0,1,2.12,1.23c2,2.77,4,5.95,7.92,3.52,2.64-1.63,4.73-4.15,7.07-6.27.82,3.3,1.86,6.56,2.41,9.91a90.68,90.68,0,0,1,.66,9.05c-1.43,1.76-1.92,3.29.95,4l.9,17c-4.22-.5-5.76,2-5.84,5.6-.07,2.92.29,5.84.57,10.4-1.78-1.88-3.08-2.68-3.46-3.8-.47-1.34-.17-3-.17-4.46,0-11.53-7.27-19.23-18.73-19.73-3.24-.14-5.4-.91-5.45-4.83,0-1.07-1.9-3-2.95-3-11.11-.23-22.23-.14-33.06-.14-1.56,2.67,1.88,6.86-3.59,7.22-2.79.17-5.37,1.67-7.62-1.41-.51-.7-3.28-.89-3.5-.48a24.46,24.46,0,0,0-1.7,5.38C291.92,343.38,291.47,345.14,291,346.89Z" transform="translate(409 579.11)"/><path class="cls-6" d="M249,508.87c-3.84,3.34-8.06,6.34-11.37,10.14-2,2.23-2.47,5.73-3.63,8.65l-4,1-5.8.42-2.25-.27-.45-.17.35.24a1,1,0,0,0,.08.64l-8.7.59L201,529.73l6.56-4.37c-4.6-2-9.55-3.84-14.12-6.36s-8.52-5.66-13.11-8.77c-1.07-5.48-2.37-12.12-3.7-18.94,3-1,7.9.88,8-4.32L180,481.88l18.33,1.85,2.76.41L217,488.88l3,1.1,9.94,4.94,3,1.62c2,2.09,3.79,4.5,6.09,6.21C242.16,505.07,245.68,506.86,249,508.87Zm-20.45,15.19-.23,1.63,3.24.23c0-.48.09-.95.14-1.43Z" transform="translate(409 579.11)"/><path class="cls-6" d="M318,453.84a45.44,45.44,0,0,0,.05-5.47A43.44,43.44,0,0,0,316.8,443l-5,2.53c-.46-1.39-.54-4.36-2-5.41-1.76-1.27-4.73-.73-7.1-1.31-2.64-.65-5.17-1.71-7.77-2.51s-5.25-2-7.93-2.18c-4.84-.36-7.08-3-8-7.38-1.21-5.75-6.46-3.51-9.84-4.55-1.23-.38-3.43,2.38-5.19,3.71l-2.85-2-.12-11c.35-1.88.67-3.77,1-5.65q2.48-12.67,5-25.35c2.6.84,3.81,2,1.33,4.46a4.57,4.57,0,0,0-1.37,2.52,25.77,25.77,0,0,0,.28,4.45c.95-1,1.83-2,2.85-2.92,1.73-1.52,3.54-2.95,5.32-4.42.65,2.09,1.39,4.16,1.92,6.27.31,1.22-.17,3,.53,3.7,4.27,4.46,8.8,8.68,13.22,13,1.05,1,2,2.12,3.05,3.19s1.86,2.76,3.09,3.13c6.79,2.06,13.58,4.54,20.56,5.42,7.31.93,14.83.21,22.68.21.43,2.1,1,4.93,1.57,7.76l-5,4.26c-.85-.32-2-1.16-2.49-.87-3.35,2-3.92,5.26-3.52,8.83l-2.43,3-6.59,7-2.62,3Z" transform="translate(409 579.11)"/><path class="cls-7" d="M415,427.85c1.06,1.36,2.14,2.71,3.19,4.08,1.52,2,3.05,4,4.41,6.11a27.31,27.31,0,0,1-2.41,1.89c-1.05-.47-2.53-1.63-3.08-1.29-3.14,1.95-6.06,4.26-9.06,6.45l-1.8,1L391,451.84c-2.72,1-5.42,2.1-8.13,3.16l-3.5,1.15-11.32,3.53L361.2,462c-7.58,3.82-15.18,7.62-22.72,11.51-.42.22-.44,1.19-.64,1.81a1.43,1.43,0,0,1-.81.57l-12.09,11.85-1,1.11-6,8,0,0c-4.69.93-3.82-2.53-4-5.12.09-.63.19-1.26.29-1.88q2.34-5.58,4.69-11.16c.27-.55.55-1.1.83-1.65l3.36-6,.6-1,1.38-2.06,0,0,2-2.85,3.43-4.07,1.64-1.8.17-.18,1.82-1.59,8.93-6.52,8.05-4,2.8-1.08,5-1.77,1.73-.4,2.44-.86,3.75-1,2.09-.75,1.72-.37,5.26-1.62,1.77-.37,19.23-5.6,4.78-1.39,4.34-1.54,1.73-.41Z" transform="translate(409 579.11)"/><path class="cls-8" d="M310,215.88c-3.44-1.94-6.89-3.86-10.31-5.82-4.59-2.63-9.16-5.28-14.5-8.36,0,2.4-.28,3.86,0,5.18,5,20.81-.23,39.57-11.24,57.25-5,8-9.61,16.25-14.72,24.18-3.37,5.22-7.6,9.9-11,15.13-9.58,14.87-20.16,29.19-26.93,45.72-.62,1.51-1,3.14-1.43,4.71-.32,1-.64,2-1,3-2,7.74-4.82,15.37-5.83,23.23-2.53,19.82,3.39,38.18,12,55.66C228.31,442.22,233,447.92,237,454l1,2,7,12c-10.6-12.09-18.62-25.8-25.37-40.31a92.48,92.48,0,0,1-8.15-49.14,103.75,103.75,0,0,1,15.59-44.37c12.28-19.78,25.68-38.86,38.31-58.44,9-14,17.94-28.36,19.4-45.46.7-8.13-.83-16.46-1.43-24.69a56,56,0,0,0-1.09-5.7C292.94,204.27,302.4,208.43,310,215.88Z" transform="translate(409 579.11)"/><path class="cls-8" d="M255,474.89c-4.36-14.66-9.42-29.16-10-44.66a41.1,41.1,0,0,0-.91-5.34l-1-9q-.51-7-1-13.95,1-2.52,2-5c.33-1.67.67-3.33,1-5l1-3c0-.33,0-.66,0-1q2.51-8,5-16c.66-1,1.32-2,2-3,3.67-2.28-.46-4.63.07-6.94l1,0c1.16-.45,2.93-.56,3.38-1.39,5-9.14,9.77-18.4,14.61-27.63h0l4.39-5c-3.59,6.72-7.07,13.49-10.79,20.13-8,14.29-15.17,28.93-18.66,45.06-3.52,16.29-1.32,32.63,1.25,48.65,2.08,12.9,6.66,25.39,10.13,38.06q.65,2.36,1.31,4.71l-1.43,1-8.64-11.67,3.43,2.11Z" transform="translate(409 579.11)"/><path class="cls-8" d="M279,320.89l2-5,4-6,1-1,1-3,2.94-4q2-4,4-8c6.09-12.53,8.36-26.12,11-39.61.28-1.41,1.29-2.67,2-4,.69,1.48,2,3,2,4.43-.17,11.06-.6,22.12-.95,33.18l-3,9L299,308c2.63-9.21,5.73-18.32,7.73-27.66,1.26-5.86.86-12.08,1.21-18.13l-1.81-.32a35,35,0,0,0-1.59,4.76c-4.06,22.09-15.35,40.94-26.67,59.78-.14.24-.56.32-.85.48Z" transform="translate(409 579.11)"/><path class="cls-8" d="M261.11,423.93l2.85,2-.9,13.95,1.92,5,0,7q.54,3.5,1.06,7c2.88,10.49,5,21.26,8.83,31.39,5.18,13.75,11.66,27,17.54,40.48.74,1.7,1.2,3.53,1.79,5.3L293,537.26l-6.05-3.83,3.61,1,1.49.15c-.13-.38-.25-.75-.37-1.12-3.63-8-7.28-15.95-10.87-23.94a229.61,229.61,0,0,1-20.12-80.22A37.05,37.05,0,0,1,261.11,423.93Z" transform="translate(409 579.11)"/><path class="cls-9" d="M313.88,532.62c1.64-8.33,9-11.34,15.26-13.23,10.15-3.09,21-4.34,31.63-5.36,20.57-2,39.15-7.92,53.66-23.49a13.54,13.54,0,0,1,2.9-1.85c-5.17,4.91-9.77,10.69-15.64,14.55-11.86,7.83-25.49,11-39.59,12.33-8.58.84-17.11,2.25-25.63,3.56C327.15,520.56,320.25,526.18,313.88,532.62Z" transform="translate(409 579.11)"/><path class="cls-7" d="M407,451.8c-3.63,4.7-6.71,10.11-13.84,10.15a10.58,10.58,0,0,0-4.09,1.36c-1.18.56-2.26,2.06-3.34,2-5.39-.22-8.46,2.67-11.29,6.8-.71,1-3.91.32-6.67.44l-1.52,2.95c-.26.08-.52.23-.56.18-4.3-5.08-8.43.93-12.65.2l1-2h0l2.12-1.3,5.66-2.84,2.33-1.29,1.75-.66,2.25-1,2.69-1c2.69-.63,5.52-.93,8.05-2C388.29,459.93,397.6,455.82,407,451.8Z" transform="translate(409 579.11)"/><path class="cls-8" d="M149.47,470.93,141.92,468c.22-.69.44-1.37.67-2.06a27.49,27.49,0,0,1,5.26,1c15.93,6.36,32.87,6.91,49.58,9,10.93,1.35,22,2.81,31.61,8.92-2.17-.64-4.32-1.45-6.53-1.88-11.36-2.18-22.73-4.33-34.11-6.38-11.55-2.09-23.13-4.07-34.7-6a9.82,9.82,0,0,0-2.75.34l0,0-.45-1Z" transform="translate(409 579.11)"/><path class="cls-10" d="M306.09,542.61c-1.3-.92-3.12-1.55-3.82-2.8-1.94-3.48-3.43-7.2-5.07-10.84-.51-1.14-.93-2.32-2-2.29-.86-4.93-1.77-9.85-2.59-14.78-1.77-10.74.76-20.74,5.37-30.36.19-.38.79-.57,1.2-.85a8.1,8.1,0,0,1-.29,2.35c-8.44,18.82-4.94,36.69,4.36,54,.53,1,2.48,1.22,3.78,1.81C306.69,540.12,306.39,541.36,306.09,542.61Z" transform="translate(409 579.11)"/><path class="cls-8" d="M376.05,329.85a90.68,90.68,0,0,0-.66-9.05c-.55-3.35-1.59-6.61-2.41-9.91l-1-3-1-2q0-.5,0-1l-1-2c-.06-1-.11-2-.17-2.95l-1.81-2.07c0-.32,0-.64-.05-1l-1.05-4c-.65-1.33-1.31-2.66-2-4l-1-2-11.91-23.28c-.75-1.46-1.48-2.93-2.22-4.39,3.18,4.75,6.64,9.34,9.5,14.29,9.55,16.51,15.43,34.38,18.9,53.07a18.72,18.72,0,0,1-.19,4.34Z" transform="translate(409 579.11)"/><path class="cls-8" d="M249,508.87c-3.34-2-6.86-3.8-10-6.12-2.3-1.71-4.08-4.12-6.09-6.21,7.41,4.62,15.12,8.83,22.13,14,5.3,3.91,9.58,9.17,14.54,13.58,1.91,1.7,4.39,2.78,6.69,4,3.17,1.67,6.41,3.2,9.62,4.8-8.57-1.84-16.27-4.68-22.21-12C259.82,516.07,254,512.82,249,508.87Z" transform="translate(409 579.11)"/><path class="cls-9" d="M407,451.8c-9.35,4-18.66,8.13-28.08,12-2.53,1-5.36,1.33-8.05,2,3.06-1.52,6.06-3.19,9.19-4.53,8.11-3.47,16.33-6.69,24.38-10.27,2.24-1,5.3-2.16,3.64-5.88,3-2.19,5.92-4.5,9.06-6.45.55-.34,2,.82,3.08,1.29a4.39,4.39,0,0,0-.17,1l-6,6Z" transform="translate(409 579.11)"/><path class="cls-7" d="M434.14,446.9c-.47-.13-1.36-.34-1.35-.38.9-4.58-3-7-4.49-10.52-2.14-4.9-5.9-7.67-10.29-10,.06-.45.12-.9.17-1.35L421,422.9l6-4,.06.06c-.52,3.16-1,6.31-1.61,9.86l6.27-3.39c-2.65,8.23-2.22,9,4.23,9.46Z" transform="translate(409 579.11)"/><path class="cls-9" d="M434.14,446.9l1.8-12c-.3-3.32-.6-6.65-.91-10l1.18,0c.44,4.49,1.51,9,1.2,13.46a96.83,96.83,0,0,1-9.49,35.45c-.38.8-1.33,1.32-2,2q.63-3.33,1.24-6.66l5.91-16.16C433.41,450.91,433.78,448.9,434.14,446.9Z" transform="translate(409 579.11)"/><path class="cls-11" d="M306.09,542.61l.9-3.73q4-9.46,8.05-18.93a51.67,51.67,0,0,0-1.49,6c-.3,2.36-.2,4.77-.27,7.16-1.33,4.74-2.29,9.63-4.21,14.11-.51,1.19-4,1.12-6.07,1.62,0-.31,0-.62,0-.93l4.76-2.49C307.2,544.51,306.65,543.56,306.09,542.61Z" transform="translate(409 579.11)"/><path class="cls-8" d="M267,381.89q-2.49,12.67-5,25.35c-.36,1.88-.68,3.77-1,5.65-1.54-11.38,1.27-22.23,4.24-33,1.07-3.89,3.06-7.52,4.63-11.28-.29,2.75-.59,5.51-.88,8.26l-1.92,3C267,380.56,267,381.22,267,381.89Z" transform="translate(409 579.11)"/><path class="cls-8" d="M198.33,483.73,180,481.88c-9.18-2.29-18.91-2.78-27.06-8.39q22.14,4.63,44.27,9.31C197.63,482.89,198,483.41,198.33,483.73Z" transform="translate(409 579.11)"/><path class="cls-12" d="M251.69,499.15l10.47,7.08L255.91,492c5.68,5.44,7.89,12.49,10.22,21Z" transform="translate(409 579.11)"/><path class="cls-12" d="M230.21,467.72c-6.77-2-13.47-4.4-20.35-5.93-5.29-1.19-10.82-1.26-16.24-1.92a41.93,41.93,0,0,1-4.63-1.08C203.42,458.56,217.69,459.09,230.21,467.72Z" transform="translate(409 579.11)"/><path class="cls-8" d="M290,327c0,1,0,1.95-.05,2.92l0,3-4.92,6-3,6c0,.67-.05,1.33-.08,2q-2.5,5.5-5,11l-2.51.05c4.18-8.88,8.32-17.78,12.58-26.63A32.61,32.61,0,0,1,290,327Z" transform="translate(409 579.11)"/><path class="cls-6" d="M363.75,400.79c.34-2.54.63-5.08,1-7.61.37-2.32,1.57-4.07.92-7.09-.81-3.81,2.92-7.08,7.26-8.2-.67,2-1.33,4-2,6l-2.47.75,1.49,1.25-5,12.9Z" transform="translate(409 579.11)"/><path class="cls-9" d="M313.9,491.73c.22,2.59-.65,6,4,5.12L312.4,507l-2.33-1Q312,498.84,313.9,491.73Z" transform="translate(409 579.11)"/><path class="cls-8" d="M371,383.89c.67-2,1.33-4,2-6,1-2,1.93-4,2.89-5.95-1.54,9.8-4.85,18.88-10.9,26.85l5-12.9Z" transform="translate(409 579.11)"/><path class="cls-7" d="M436.21,424.85l-1.18,0-8-6-.06-.06,2-3.94c.41-.65.83-1.3,1.24-2,1.18,1,2.78,1.85,3.44,3.14a43.14,43.14,0,0,1,2.18,6.74C436,423.53,436.1,424.19,436.21,424.85Z" transform="translate(409 579.11)"/><path class="cls-13" d="M244.77,528.08c7.61.66,15.22,1.3,22.82,2.07.53.05,1,1.14,1.41,1.75Z" transform="translate(409 579.11)"/><path class="cls-9" d="M337.84,475.34c.2-.62.22-1.59.64-1.81,7.54-3.89,15.14-7.69,22.72-11.51l-17,9.76C342.06,473,340,474.16,337.84,475.34Z" transform="translate(409 579.11)"/><path class="cls-8" d="M377.9,350.9l-.9-17,1.27-1.09q-.07,12.68-.14,25.35C378.06,355.73,378,353.32,377.9,350.9Z" transform="translate(409 579.11)"/><path class="cls-8" d="M318,453.84l1.37,0-13.75,16.95a2.06,2.06,0,0,1-.73-.14Z" transform="translate(409 579.11)"/><path class="cls-9" d="M327,500c-1.21,8-8.22,12.47-11.8,19Q321.14,509.47,327,500Z" transform="translate(409 579.11)"/><path class="cls-8" d="M333.51,238l-16.59-16.45Z" transform="translate(409 579.11)"/><path class="cls-13" d="M303,548c0,.31,0,.62,0,.93-2.49-1.77-4.9-3.66-7.48-5.28-4.18-2.62-8.47-5.05-12.71-7.56,6.56.51,11.36,4.44,16.15,8.36C300.35,545.53,301.65,546.76,303,548Z" transform="translate(409 579.11)"/><path class="cls-9" d="M382.87,455c2.71-1.06,5.41-2.12,8.13-3.16l15.23-5.8Z" transform="translate(409 579.11)"/><path class="cls-6" d="M279,320.89c-.67,2-1.33,4-2,6l-.6,1-4.39,5C271.47,326.05,273.84,322,279,320.89Z" transform="translate(409 579.11)"/><path class="cls-12" d="M251.49,486.07l-12.66-12.71Z" transform="translate(409 579.11)"/><path class="cls-12" d="M173.33,457.59,154,455.77Z" transform="translate(409 579.11)"/><path class="cls-9" d="M324.94,487.76,337,475.91Z" transform="translate(409 579.11)"/><path class="cls-7" d="M352,476.82l-.87,3.3c-1.27,4.69-2.9,5.32-7.15,2.74l3-4,1.11-.93Z" transform="translate(409 579.11)"/><path class="cls-8" d="M298,312.89l-7.55,13.05,7.35-15.12.39.11C298.14,311.58,298.08,312.23,298,312.89Z" transform="translate(409 579.11)"/><path class="cls-9" d="M397,433.09l-19.23,5.6Z" transform="translate(409 579.11)"/><path class="cls-3" d="M331,440.87c-.4-3.57.17-6.83,3.52-8.83.48-.29,1.64.55,2.49.87L336,435.79Q333.47,438.33,331,440.87Z" transform="translate(409 579.11)"/><path class="cls-13" d="M201,529.73l12.28.38-16.55,0Z" transform="translate(409 579.11)"/><path class="cls-12" d="M152.27,455.66l-16.43-5.33Z" transform="translate(409 579.11)"/><path class="cls-9" d="M335.93,490.85a58.61,58.61,0,0,1-4,4.87,41.78,41.78,0,0,1-4.29,3.39L336,488.89C336,489.54,336,490.2,335.93,490.85Z" transform="translate(409 579.11)"/><path class="cls-8" d="M231.11,485.84c5,1.4,10,2.85,12.94,7.7Z" transform="translate(409 579.11)"/><path class="cls-8" d="M217,488.88l-15.91-4.74Z" transform="translate(409 579.11)"/><path class="cls-9" d="M435.89,422.86a43.14,43.14,0,0,0-2.18-6.74c-.66-1.29-2.26-2.11-3.44-3.14.35-2.11,1.87-3.58,2.94-1.22C434.76,415.17,435.06,419.14,435.89,422.86Z" transform="translate(409 579.11)"/><path class="cls-9" d="M318.88,478.69q-2.36,5.58-4.69,11.16Q316.53,484.27,318.88,478.69Z" transform="translate(409 579.11)"/><path class="cls-9" d="M368.05,459.68l11.32-3.53Z" transform="translate(409 579.11)"/><path class="cls-9" d="M429,414.94l-2,3.94-6,4Z" transform="translate(409 579.11)"/><path class="cls-13" d="M230,528.66l4-1,7.21.42Z" transform="translate(409 579.11)"/><path class="cls-8" d="M346.76,255q-3.35-4.59-6.71-9.17Q343.41,250.37,346.76,255Z" transform="translate(409 579.11)"/><path class="cls-8" d="M345,425.91c.88-2.88.42-7,5.46-6.11Z" transform="translate(409 579.11)"/><path class="cls-9" d="M318,496.83l6-8Z" transform="translate(409 579.11)"/><path class="cls-14" d="M139.05,494.89q3.48,4.5,6.95,9Q142.52,499.4,139.05,494.89Z" transform="translate(409 579.11)"/><path class="cls-13" d="M164.76,520.06l9.41,4.84Z" transform="translate(409 579.11)"/><path class="cls-8" d="M229.92,494.92,220,490Z" transform="translate(409 579.11)"/><path class="cls-8" d="M322,450.83l6.59-7Z" transform="translate(409 579.11)"/><path class="cls-8" d="M336,435.79l1.05-2.88,5-4.26a2.75,2.75,0,0,0,.49.14Q339.24,432.29,336,435.79Z" transform="translate(409 579.11)"/><path class="cls-12" d="M125.29,464.94q1.83,5.51,3.67,11Q127.12,470.44,125.29,464.94Z" transform="translate(409 579.11)"/><path class="cls-8" d="M377,360.85a5.43,5.43,0,0,1,.9,0c-.59,3.09-1.17,6.18-1.76,9.27,0-2.09-.09-4.18-.13-6.28Z" transform="translate(409 579.11)"/><path class="cls-9" d="M347,478.87l-3,4-3.87,2.08Z" transform="translate(409 579.11)"/><path class="cls-12" d="M184.84,458.5l-8.86-.75Z" transform="translate(409 579.11)"/><path class="cls-12" d="M129,445.91l-5.25-.8.72-2.83Z" transform="translate(409 579.11)"/><path class="cls-8" d="M339.43,245l-5.36-6.23Z" transform="translate(409 579.11)"/><path class="cls-9" d="M351.12,446.92l-8.05,4Z" transform="translate(409 579.11)"/><path class="cls-12" d="M123.56,447c0,2.75,0,5.49.07,8.24C123.61,452.53,123.58,449.78,123.56,447Z" transform="translate(409 579.11)"/><path class="cls-12" d="M238,472.88l-6.21-4.33Z" transform="translate(409 579.11)"/><path class="cls-8" d="M356,412.82l4.2-6Z" transform="translate(409 579.11)"/><path class="cls-9" d="M323.07,471l-3.36,6Z" transform="translate(409 579.11)"/><path class="cls-9" d="M415,427.85l-7.18,1.9,7.4-3.25C415.13,427,415.05,427.4,415,427.85Z" transform="translate(409 579.11)"/><path class="cls-7" d="M335.93,490.85c0-.65.05-1.31.07-2l3.12-2.78C340.7,489.46,338.46,490.25,335.93,490.85Z" transform="translate(409 579.11)"/><path class="cls-9" d="M352,476.82l-3.87,1.12,5.91-4-1,2Z" transform="translate(409 579.11)"/><path class="cls-12" d="M130.94,480.7q1.51,3.1,3.05,6.2Q132.46,483.81,130.94,480.7Z" transform="translate(409 579.11)"/><path class="cls-9" d="M418.78,485.84l3.63-4.13q-1.74,2.51-3.47,5C418.89,486.43,418.84,486.14,418.78,485.84Z" transform="translate(409 579.11)"/><path class="cls-12" d="M255.87,492,252,486.83Z" transform="translate(409 579.11)"/><path class="cls-3" d="M378.27,332.8,377,333.89c-2.87-.75-2.38-2.28-.95-4l2,1.07C378.14,331.55,378.21,332.17,378.27,332.8Z" transform="translate(409 579.11)"/><path class="cls-9" d="M359,444.07l-5,1.77Z" transform="translate(409 579.11)"/><path class="cls-13" d="M271.07,531.83l4.94,2Z" transform="translate(409 579.11)"/><path class="cls-9" d="M376,439.06l-5.26,1.62Z" transform="translate(409 579.11)"/><path class="cls-13" d="M177,525.89l4.92,1.67Z" transform="translate(409 579.11)"/><path class="cls-14" d="M155,512.88,159,516Z" transform="translate(409 579.11)"/><path class="cls-9" d="M423,480.82l2.46-4.11Z" transform="translate(409 579.11)"/><path class="cls-9" d="M406.07,430.16l-4.34,1.54Z" transform="translate(409 579.11)"/><path class="cls-12" d="M123.86,457.87l.9,4.3Z" transform="translate(409 579.11)"/><path class="cls-8" d="M352,417.94l2.57-3.12Z" transform="translate(409 579.11)"/><path class="cls-8" d="M349.66,259l-2.77-3.83Z" transform="translate(409 579.11)"/><path class="cls-13" d="M277.87,534.4l4.18,1.15Z" transform="translate(409 579.11)"/><path class="cls-6" d="M274.49,357.93l2.51-.05-3.23,1.9Z" transform="translate(409 579.11)"/><path class="cls-8" d="M313.86,218.94l-2.95-2.4Z" transform="translate(409 579.11)"/><path class="cls-8" d="M245.67,468.8l2.33,3.09Z" transform="translate(409 579.11)"/><path class="cls-9" d="M327.08,465.09l-2,2.85Z" transform="translate(409 579.11)"/><path class="cls-13" d="M183.85,528l3.11.71Z" transform="translate(409 579.11)"/><path class="cls-10" d="M302,475.83l1.83-3Z" transform="translate(409 579.11)"/><path class="cls-9" d="M356.14,472.6,354,473.9Z" transform="translate(409 579.11)"/><path class="cls-9" d="M364.13,468.47l-2.33,1.29Z" transform="translate(409 579.11)"/><path class="cls-9" d="M325.05,468,323.67,470Z" transform="translate(409 579.11)"/><path class="cls-9" d="M368.13,466.8l-2.25,1Z" transform="translate(409 579.11)"/><path class="cls-9" d="M332.15,459.22l-1.64,1.8Z" transform="translate(409 579.11)"/><path class="cls-8" d="M362,403.9l1.29-2.08Z" transform="translate(409 579.11)"/><path class="cls-9" d="M334.14,457.45,332.32,459Z" transform="translate(409 579.11)"/><path class="cls-9" d="M363.13,442.81l-2.44.86Z" transform="translate(409 579.11)"/><path class="cls-10" d="M304.88,470.6a2.06,2.06,0,0,0,.73.14l-1.73,1.95C304.22,472,304.55,471.3,304.88,470.6Z" transform="translate(409 579.11)"/><path class="cls-9" d="M418.18,424.64c-.05.45-.11.9-.17,1.35h-1.86Z" transform="translate(409 579.11)"/><path class="cls-12" d="M133,448.87l-2.2-1.53Z" transform="translate(409 579.11)"/><path class="cls-8" d="M272.91,361.72,271.78,364Z" transform="translate(409 579.11)"/><path class="cls-9" d="M369,441.05l-2.09.75Z" transform="translate(409 579.11)"/><path class="cls-13" d="M188.86,529l2.06.53Z" transform="translate(409 579.11)"/><path class="cls-13" d="M222,529.52a1,1,0,0,1-.08-.64l.1-.08,2.25.28Z" transform="translate(409 579.11)"/><path class="cls-14" d="M151.81,510l2.18,1.9Z" transform="translate(409 579.11)"/><path class="cls-7" d="M418.78,485.84c.06.3.11.59.16.89a.53.53,0,0,1-.59.33l-.7-.57Z" transform="translate(409 579.11)"/><path class="cls-13" d="M270,531.69l1.1.11Z" transform="translate(409 579.11)"/><path class="cls-6" d="M272,332.89c-4.84,9.23-9.62,18.49-14.61,27.63-.45.83-2.22.94-3.38,1.39a8.3,8.3,0,0,0-.89-2.8c-2.6-3.25-4.07-6-.38-9.92,2.69-2.85,4.06-6.95,6.23-10.88l5.25,4.87c.43-3.49.78-6.37,1.13-9.25l.5.11c-.32-3.56-.64-7.11-1-10.67l2.29-.61a42.73,42.73,0,0,1,1.76,5.3C269.36,330.13,268.08,333.08,272,332.89Z" transform="translate(409 579.11)"/><path class="cls-6" d="M253.05,361.93c-.53,2.31,3.6,4.66-.07,6.94l-2.92-.95c.32,1.33.64,2.65.95,4q-2.49,8-5,16c.25-2.64.49-5.3.76-7.94.3-2.82.65-5.63.94-8.45.22-2.16.45-4.32.56-6.48a31.09,31.09,0,0,0-.24-3.6c-.08-1-.16-2-.33-4.17Z" transform="translate(409 579.11)"/><path class="cls-6" d="M305,296.89l3-9c.46,3,.92,6,1.47,9.61Z" transform="translate(409 579.11)"/><path class="cls-6" d="M243,415.88l1,9C238.26,422.48,241.7,419.06,243,415.88Z" transform="translate(409 579.11)"/><path class="cls-6" d="M285,309.9l-4,6C278.73,311.49,281.33,310.33,285,309.9Z" transform="translate(409 579.11)"/><path class="cls-6" d="M294,293.88q-2,4-4,8C290.24,298.68,288.11,294.27,294,293.88Z" transform="translate(409 579.11)"/><path class="cls-6" d="M244,396.89q-1,2.52-2,5Q243,399.41,244,396.89Z" transform="translate(409 579.11)"/><path class="cls-6" d="M367,292.89l1.05,4Z" transform="translate(409 579.11)"/><path class="cls-6" d="M368.06,297.85l1.81,2.07Z" transform="translate(409 579.11)"/><path class="cls-6" d="M246,388.88l-1,3Z" transform="translate(409 579.11)"/><path class="cls-6" d="M287,305.91l-1,3Z" transform="translate(409 579.11)"/><path class="cls-6" d="M219,356.89c.33-1,.65-2,1-3C219.64,354.88,219.32,355.88,219,356.89Z" transform="translate(409 579.11)"/><path class="cls-6" d="M238,455.91l-1-2,1.46-.55C238.27,454.24,238.13,455.07,238,455.91Z" transform="translate(409 579.11)"/><path class="cls-6" d="M364,286.89l1,2Z" transform="translate(409 579.11)"/><path class="cls-6" d="M255,474.89l-2,1Z" transform="translate(409 579.11)"/><path class="cls-3" d="M298,312.89c.06-.66.12-1.31.19-2l1.79,0Z" transform="translate(409 579.11)"/><path class="cls-6" d="M371,305.88l1,2Z" transform="translate(409 579.11)"/><path class="cls-3" d="M370,302.87l1,2Z" transform="translate(409 579.11)"/><path class="cls-6" d="M377,360.85l-1,3-.9-3.57Z" transform="translate(409 579.11)"/><path class="cls-6" d="M282,346.87c0-.66.05-1.32.08-2l2.93,3Z" transform="translate(409 579.11)"/><path class="cls-6" d="M267.06,379.9l1.92-3Z" transform="translate(409 579.11)"/><path class="cls-6" d="M291.55,346.78l-1.75,1.63a5.19,5.19,0,0,1,.34-1.33C290.23,346.91,290.7,346.94,291.55,346.78Z" transform="translate(409 579.11)"/><polygon class="cls-6" points="694 927 694.41 927.23 694.23 927.41 694 927"/><path class="cls-7" d="M414,446.88l6-6,4.33,7.72c-.61,1.51-1.59,3.19-4.7.55C418.16,447.92,415.89,447.61,414,446.88Z" transform="translate(409 579.11)"/><path class="cls-7" d="M433.05,452.91l-5.91,16.16c.69-4.41,1.14-8.89,2.21-13.21C429.65,454.64,431.77,453.88,433.05,452.91Z" transform="translate(409 579.11)"/><path class="cls-6" d="M176.17,487l-4.08-1.32c.19-.53.37-1.07.56-1.61l4,1.5Z" transform="translate(409 579.11)"/><path class="cls-1" d="M149.47,470.93l1.07-1,.45,1Z" transform="translate(409 579.11)"/><path class="cls-6" d="M266.07,458.9q-.52-3.51-1.06-7C268.1,453.81,268.17,456.19,266.07,458.9Z" transform="translate(409 579.11)"/><path class="cls-6" d="M265,444.92l-1.92-5Z" transform="translate(409 579.11)"/><path class="cls-3" d="M290,332.88l0-3,2.79,1.28Z" transform="translate(409 579.11)"/><path class="cls-2" d="M228.57,524.06l3.15.43c-.05.48-.09,1-.14,1.43l-3.24-.23Z" transform="translate(409 579.11)"/><path class="cls-14" d="M221.89,528.88l-.35-.24.45.17Z" transform="translate(409 579.11)"/><path class="cls-2" d="M251,371.9c-.31-1.33-.63-2.65-.95-4l2.92.95C252.33,369.88,251.67,370.89,251,371.9Z" transform="translate(409 579.11)"/><path class="cls-1" d="M291.67,533.42c.12.37.24.74.37,1.12l-1.49-.15Z" transform="translate(409 579.11)"/><path class="cls-4" d="M427.05,418.94l8,6c.31,3.32.61,6.65.91,10-6.45-.42-6.88-1.23-4.23-9.46l-6.27,3.39C426,425.25,426.53,422.1,427.05,418.94Z" transform="translate(409 579.11)"/><path class="cls-3" d="M371,383.89l-1,2-1.49-1.25Z" transform="translate(409 579.11)"/></svg>