<svg width="25" height="24" viewBox="0 0 25 24" fill="none" xmlns="http://www.w3.org/2000/svg">
<g clip-path="url(#clip0_4525_1702)">
<path d="M20.3335 0H4.3335C2.12436 0 0.333496 1.79086 0.333496 4V20C0.333496 22.2091 2.12436 24 4.3335 24H20.3335C22.5426 24 24.3335 22.2091 24.3335 20V4C24.3335 1.79086 22.5426 0 20.3335 0Z" fill="url(#paint0_radial_4525_1702)"/>
<path d="M6.02528 16.0569C6.33848 17.0227 7.2904 17.6389 8.30613 17.6389H8.346C8.43919 18.0938 8.68652 18.5025 9.04622 18.796C9.40592 19.0896 9.85592 19.2499 10.3202 19.25C10.6515 19.25 10.9611 19.1666 11.2351 19.0231C11.3495 18.9603 11.4447 18.8677 11.5104 18.7551C11.5762 18.6424 11.6101 18.514 11.6085 18.3836V5.49367C11.61 5.32756 11.5542 5.16602 11.4505 5.03621C11.3469 4.90641 11.2017 4.81626 11.0394 4.78095C10.6757 4.7103 10.2988 4.76152 9.9671 4.92668C9.4277 5.1848 9.1116 5.76121 9.1116 6.36083V6.4007C8.70793 6.31831 8.2887 6.3617 7.91046 6.52503C7.53222 6.68835 7.21316 6.96376 6.99632 7.31409C6.77948 7.66443 6.67529 8.07284 6.69779 8.48425C6.7203 8.89565 6.86843 9.29026 7.1222 9.61484C6.55386 9.7039 6.03606 9.99316 5.66223 10.4304C5.28839 10.8677 5.08314 11.4242 5.0835 11.9995C5.0835 12.8536 5.52648 13.6026 6.19493 14.0384C5.88318 14.5974 5.78095 15.3043 6.02528 16.0569ZM17.5448 9.61484C17.7986 9.29026 17.9467 8.89565 17.9692 8.48425C17.9917 8.07284 17.8875 7.66443 17.6707 7.31409C17.4538 6.96376 17.1348 6.68835 16.7565 6.52503C16.3783 6.3617 15.9591 6.31831 15.5554 6.4007V6.36083C15.5554 5.76194 15.2386 5.1848 14.6992 4.92668C14.3678 4.76147 13.9911 4.71024 13.6276 4.78095C13.4654 4.81639 13.3203 4.90656 13.2166 5.03634C13.113 5.16612 13.0572 5.3276 13.0585 5.49367V18.3828C13.0585 18.6475 13.1977 18.8991 13.4326 19.0223C13.7066 19.1666 14.0155 19.25 14.3468 19.25C14.8112 19.2499 15.2613 19.0894 15.621 18.7958C15.9807 18.5021 16.228 18.0932 16.321 17.6382H16.3616C17.3766 17.6382 18.3292 17.0219 18.6424 16.0562C18.8868 15.3036 18.7845 14.5966 18.4728 14.0376C18.8133 13.8176 19.0933 13.5158 19.2873 13.1598C19.4813 12.8039 19.5832 12.405 19.5835 11.9995C19.5839 11.4242 19.3786 10.8677 19.0048 10.4304C18.6309 9.99316 18.1131 9.7039 17.5448 9.61484Z" fill="white"/>
</g>
<defs>
<radialGradient id="paint0_radial_4525_1702" cx="0" cy="0" r="1" gradientUnits="userSpaceOnUse" gradientTransform="translate(0.333496) rotate(45) scale(33.9411)">
<stop stop-color="#C02EB2"/>
<stop offset="1" stop-color="#8062BE"/>
</radialGradient>
<clipPath id="clip0_4525_1702">
<rect width="24" height="24" fill="white" transform="translate(0.333496)"/>
</clipPath>
</defs>
</svg>
